<svg width="206" height="21" viewBox="0 0 206 21" fill="none" xmlns="http://www.w3.org/2000/svg">
<path d="M12.44 20H0.408V0.863998H12.44V4.064H3.768V8.896H11.832V12.096H3.768V16.8H12.44V20ZM31.276 0.863998L24.94 20H21.004L14.7 0.863998H18.284L22.988 15.68L27.724 0.863998H31.276ZM48.218 15.456C48.218 16.16 48.0473 16.768 47.706 17.28C47.45 17.6213 47.066 18.048 46.554 18.56C46.0633 19.072 45.6687 19.4133 45.37 19.584C44.7513 19.968 44.09 20.16 43.386 20.16H38.522C37.818 20.16 37.1567 19.968 36.538 19.584C36.2393 19.4133 35.8233 19.072 35.29 18.56C34.778 18.0267 34.4153 17.6 34.202 17.28C33.8607 16.768 33.69 16.16 33.69 15.456V5.44C33.69 4.736 33.8607 4.128 34.202 3.616C34.4153 3.296 34.778 2.88 35.29 2.368C35.8233 1.83467 36.2393 1.48267 36.538 1.312C37.1567 0.927998 37.818 0.735998 38.522 0.735998H43.386C44.09 0.735998 44.7513 0.927998 45.37 1.312C45.6687 1.48267 46.0633 1.824 46.554 2.336C47.066 2.848 47.45 3.27467 47.706 3.616C48.0473 4.128 48.218 4.736 48.218 5.44V15.456ZM37.05 5.536V15.424C37.05 15.488 37.0607 15.5307 37.082 15.552C37.5087 16.192 37.978 16.6507 38.49 16.928C38.5327 16.9493 38.586 16.96 38.65 16.96H43.258C43.322 16.96 43.3753 16.9493 43.418 16.928C43.93 16.6507 44.3993 16.192 44.826 15.552L44.858 15.424V5.536C44.858 5.45067 44.8473 5.39733 44.826 5.376C44.378 4.71467 43.9087 4.24533 43.418 3.968C43.3753 3.94667 43.322 3.936 43.258 3.936H38.65C38.5647 3.936 38.5113 3.94667 38.49 3.968C37.9993 4.24533 37.53 4.71467 37.082 5.376L37.05 5.536ZM64.3418 20H52.5018V0.863998H55.8618V16.8H64.3418V20ZM77.9248 15.424V0.863998H81.2848V15.456C81.2848 16.16 81.1141 16.768 80.7728 17.28C80.5381 17.6 80.1648 18.0267 79.6528 18.56C79.1621 19.072 78.7568 19.4133 78.4368 19.584C77.8181 19.968 77.1674 20.16 76.4848 20.16H72.4208C71.7168 20.16 71.0554 19.968 70.4368 19.584C70.1381 19.4133 69.7221 19.072 69.1888 18.56C68.6768 18.0267 68.3141 17.6 68.1008 17.28C67.7594 16.768 67.5888 16.16 67.5888 15.456V0.863998H70.9488V15.392C70.9488 15.4773 70.9594 15.5307 70.9808 15.552C71.4288 16.2133 71.8981 16.672 72.3888 16.928L72.5488 16.96H76.3568C76.4208 16.96 76.4741 16.9493 76.5168 16.928C77.0074 16.672 77.4661 16.2133 77.8928 15.552L77.9248 15.424ZM98.3308 4.064H93.1468V20H89.7868V4.064H84.6028V0.863998H98.3308V4.064ZM105.112 20H101.752V0.863998H105.112V20ZM124.281 15.456C124.281 16.16 124.11 16.768 123.769 17.28C123.513 17.6213 123.129 18.048 122.617 18.56C122.126 19.072 121.731 19.4133 121.433 19.584C120.814 19.968 120.153 20.16 119.449 20.16H114.585C113.881 20.16 113.219 19.968 112.601 19.584C112.302 19.4133 111.886 19.072 111.353 18.56C110.841 18.0267 110.478 17.6 110.265 17.28C109.923 16.768 109.753 16.16 109.753 15.456V5.44C109.753 4.736 109.923 4.128 110.265 3.616C110.478 3.296 110.841 2.88 111.353 2.368C111.886 1.83467 112.302 1.48267 112.601 1.312C113.219 0.927998 113.881 0.735998 114.585 0.735998H119.449C120.153 0.735998 120.814 0.927998 121.433 1.312C121.731 1.48267 122.126 1.824 122.617 2.336C123.129 2.848 123.513 3.27467 123.769 3.616C124.11 4.128 124.281 4.736 124.281 5.44V15.456ZM113.113 5.536V15.424C113.113 15.488 113.123 15.5307 113.145 15.552C113.571 16.192 114.041 16.6507 114.553 16.928C114.595 16.9493 114.649 16.96 114.713 16.96H119.321C119.385 16.96 119.438 16.9493 119.481 16.928C119.993 16.6507 120.462 16.192 120.889 15.552L120.921 15.424V5.536C120.921 5.45067 120.91 5.39733 120.889 5.376C120.441 4.71467 119.971 4.24533 119.481 3.968C119.438 3.94667 119.385 3.936 119.321 3.936H114.713C114.627 3.936 114.574 3.94667 114.553 3.968C114.062 4.24533 113.593 4.71467 113.145 5.376L113.113 5.536ZM142.1 20H138.548L131.924 7.296V20H128.564V0.863998H132.18L138.74 13.728V0.863998H142.1V20Z" fill="#45E57D"/>
<path d="M157.612 5.44V15.456C157.612 15.6267 157.782 15.8827 158.124 16.224C158.486 16.544 158.806 16.7787 159.084 16.928H159.116C159.158 16.9493 159.201 16.96 159.244 16.96H163.596L163.756 16.928C164.012 16.7787 164.321 16.5227 164.684 16.16C165.046 15.7973 165.228 15.5307 165.228 15.36V12.256H161.1V9.056H168.588V15.52C168.737 16.928 168.94 18.4213 169.196 20H165.9L165.74 19.232C164.865 19.8507 164.204 20.16 163.756 20.16H159.084C158.38 20.16 157.718 19.968 157.1 19.584C156.78 19.392 156.364 19.0507 155.852 18.56C155.34 18.048 154.977 17.6427 154.764 17.344C154.422 16.832 154.252 16.2133 154.252 15.488V5.376C154.252 4.672 154.422 4.064 154.764 3.552C154.977 3.232 155.34 2.816 155.852 2.304C156.385 1.77067 156.801 1.41867 157.1 1.248C157.676 0.885332 158.337 0.703999 159.084 0.703999H163.756C165.228 0.703999 166.582 1.58933 167.82 3.36C168.14 3.808 168.364 4.18133 168.492 4.48L165.26 5.408C164.79 4.768 164.289 4.27733 163.756 3.936C163.734 3.91467 163.681 3.904 163.596 3.904H159.244L159.084 3.936C158.508 4.256 158.028 4.71467 157.644 5.312L157.612 5.44ZM185.955 0.863998L179.619 11.648V20H176.259V11.648L169.987 0.863998H173.699L177.955 8.128L182.211 0.863998H185.955ZM205.108 20H201.748V6.912L197.94 15.296H195.732L191.924 6.944V20H188.564V0.863998H192.404L196.884 10.304L201.3 0.863998H205.108V20Z" fill="white"/>
</svg>
